/* XPM */
static char *_96c72c1ffb548f5a137fb98928c75edEnygPc2zOkxE2bCj[] = {
/* columns rows colors chars-per-pixel */
"32 32 3 1 ",
"  c black",
". c #D3FF00",
"X c #D4FF00",
/* pixels */
"                                ",
"                                ",
"                                ",
"                                ",
"       XXXXXXXXX                ",
"       XXXXXXXXX                ",
"    XXXXXXXXXXXXXX.             ",
"   XXXXXXXXXXXXXXXX             ",
"  XXXXXXXXXXXXXXXXXX            ",
"  .XXXXXXXXXXXXXXXXXX           ",
"  XXXXXXXXXXXXXXXXXXX           ",
"XXXXXXXXXXXXXXXXXXXX            ",
"XXXXXXXXXXXXXXXXXX              ",
"XXXXXXXXXXXXXXXXXX              ",
"XXXXXXXXXXXXX                   ",
"XXXXXXXXXXXXX                   ",
"XXXXXXX                         ",
"XXXXXXXXXXXXX                   ",
"XXXXXXXXXXXXX                   ",
"XXXXXXXXXXXXXXXXXX              ",
"X.XXXXXXXXXXXXXXXX              ",
"  XXXXXXXXXXXXXXXXXX            ",
"  XXXXXXXXXXXXXXXXXXX           ",
"  XXXXXXXXXXXXXXXXXXX           ",
"   XXXXXXXXXXXXXXXXXX           ",
"   XXXXXXXXXXXXXXX.             ",
"       XXXXXXXXX                ",
"       XXXXXXXXX                ",
"                                ",
"                                ",
"                                ",
"                                "
};
