/* XPM */
static char *_55ac07878314da2923c81c051a5313e0v3FM47CWGAsoa7Z[] = {
/* columns rows colors chars-per-pixel */
"32 32 3 1 ",
"  c black",
". c #D3FF00",
"X c #D4FF00",
/* pixels */
"                                ",
"                                ",
"                                ",
"                                ",
"                XXXXXXXXX       ",
"                XXXXXXXXX       ",
"             .XXXXXXXXXXXXXXX   ",
"           XXXXXXXXXXXXXXXXXX   ",
"           XXXXXXXXXXXXXXXXXXX  ",
"           XXXXXXXXXXXXXXXXXXX  ",
"            XXXXXXXXXXXXXXXXXX  ",
"              XXXXXXXXXXXXXXXX.X",
"              XXXXXXXXXXXXXXXXXX",
"                   XXXXXXXXXXXXX",
"                   XXXXXXXXXXXXX",
"                         XXXXXXX",
"                   XXXXXXXXXXXXX",
"                   XXXXXXXXXXXXX",
"              XXXXXXXXXXXXXXXXXX",
"              XXXXXXXXXXXXXXXXXX",
"            XXXXXXXXXXXXXXXXXXXX",
"           XXXXXXXXXXXXXXXXXXX  ",
"           XXXXXXXXXXXXXXXXXX.  ",
"            XXXXXXXXXXXXXXXXXX  ",
"             XXXXXXXXXXXXXXXX   ",
"             .XXXXXXXXXXXXXX    ",
"                XXXXXXXXX       ",
"                XXXXXXXXX       ",
"                                ",
"                                ",
"                                ",
"                                "
};
