/* XPM */
static char *_92306372f2b49daedc7e5239f7c5c6cXl1dzXR1fQO7lXeh[] = {
/* columns rows colors chars-per-pixel */
"32 32 3 1 ",
"  c black",
". c #D3FF00",
"X c #D4FF00",
/* pixels */
"                                ",
"                                ",
"                                ",
"                                ",
"                  XXXXXXXXX     ",
"                  XXXXXXXXX     ",
"               XXXXXXXXXXXXXX.  ",
"              XXXXXXXXXXXXXXXX  ",
"             XXXXXXXXXXXXXXXXXX ",
"             .XXXXXXXXXXXXXXXXXX",
"             XXXXXXXXXXXXXXXXXXX",
"           XXXXXXXXXXXXXXXXXXXX ",
"           XXXXXXXXXXXXXXXXXX   ",
"           XXXXXXXXXXXXXXXXXX   ",
"           XXXXXXXXXXXXX        ",
"           XXXXXXXXXXXXX        ",
"           XXXXXXX              ",
"           XXXXXXXXXXXXX        ",
"           XXXXXXXXXXXXX        ",
"           XXXXXXXXXXXXXXXXXX   ",
"           X.XXXXXXXXXXXXXXXX   ",
"             XXXXXXXXXXXXXXXXXX ",
"             XXXXXXXXXXXXXXXXXXX",
"             XXXXXXXXXXXXXXXXXXX",
"              XXXXXXXXXXXXXXXXXX",
"              XXXXXXXXXXXXXXX.  ",
"                  XXXXXXXXX     ",
"                  XXXXXXXXX     ",
"                                ",
"                                ",
"                                ",
"                                "
};
