/* XPM */
static char *_d34d9b60d2e4ed3b132512237ea8a7fYwYV3T3gPPT0WdxT[] = {
/* columns rows colors chars-per-pixel */
"32 32 3 1 ",
"  c black",
". c #D3FF00",
"X c #D4FF00",
/* pixels */
"                                ",
"                                ",
"                                ",
"                                ",
"                                ",
"                                ",
"                                ",
"                                ",
"                                ",
"                                ",
"                                ",
"         XX           XXX       ",
"        XXXX         XXXX       ",
"      .XXXXX         XXXX.      ",
"      XXXXXXXX     XXXXXXX      ",
"      XXXXXXXX     XXXXXXX      ",
"    XXXXXXXXXX     XXXXXXXXX    ",
"    XXXXXXXXXX     XXXXXXXXX    ",
"    XXXXXXXXXX     XXXXXXXXX    ",
"    XXXXXXXXXXXX XXXXXXXXXXX    ",
"    XXXXXXXXXXXX XXXXXXXXXXX    ",
"    XXXXXXXXXXXX XXXXXXXXXXX    ",
"    XXXXXXXXXXXX XXXXXXXXXXX    ",
"    XXXXXXXXXXXX XXXXXXXXXXX    ",
"    XXXXXXXXXXXX XXXXXXXXXXX    ",
"      XXXXXXXXXXXXXXXXXXXX      ",
"      XXXXXXXXXXXXXXXXXXXX      ",
"      XXXXXXXXXXXXXXXXXXXX      ",
"       XXXXXXXXXXXXXXXXXXX      ",
"        X.XXXXXXXXXXXXXX        ",
"           XXXXXXXXX.           ",
"           XXXXXXXXXX           "
};
