/* XPM */
static char *cca06b6b485f43bff716f0263a7f4496ujpf7DBepdRyBtuP[] = {
/* columns rows colors chars-per-pixel */
"32 32 3 1 ",
"  c black",
". c #D3FF00",
"X c #D4FF00",
/* pixels */
"                                ",
"                                ",
"                                ",
"                                ",
"     XXXXXXXXX                  ",
"     XXXXXXXXX                  ",
"  .XXXXXXXXXXXXXXX              ",
"XXXXXXXXXXXXXXXXXX              ",
"XXXXXXXXXXXXXXXXXXX             ",
"XXXXXXXXXXXXXXXXXXX             ",
" XXXXXXXXXXXXXXXXXX             ",
"   XXXXXXXXXXXXXXXX.X           ",
"   XXXXXXXXXXXXXXXXXX           ",
"        XXXXXXXXXXXXX           ",
"        XXXXXXXXXXXXX           ",
"              XXXXXXX           ",
"        XXXXXXXXXXXXX           ",
"        XXXXXXXXXXXXX           ",
"   XXXXXXXXXXXXXXXXXX           ",
"   XXXXXXXXXXXXXXXXXX           ",
" XXXXXXXXXXXXXXXXXXXX           ",
"XXXXXXXXXXXXXXXXXXX             ",
"XXXXXXXXXXXXXXXXXX.             ",
" XXXXXXXXXXXXXXXXXX             ",
"  XXXXXXXXXXXXXXXX              ",
"  .XXXXXXXXXXXXXX               ",
"     XXXXXXXXX                  ",
"     XXXXXXXXX                  ",
"                                ",
"                                ",
"                                ",
"                                "
};
