/* XPM */
static char *_61a213c981443bddcc1057ca9d2c467z4PYZIoFSuSYvaBQ[] = {
/* columns rows colors chars-per-pixel */
"32 32 3 1 ",
"  c black",
". c #D3FF00",
"X c #D4FF00",
/* pixels */
"           XXXXXXXXXX           ",
"           .XXXXXXXXX           ",
"        XXXXXXXXXXXXXX.X        ",
"      XXXXXXXXXXXXXXXXXXX       ",
"      XXXXXXXXXXXXXXXXXXXX      ",
"      XXXXXXXXXXXXXXXXXXXX      ",
"      XXXXXXXXXXXXXXXXXXXX      ",
"    XXXXXXXXXXX XXXXXXXXXXXX    ",
"    XXXXXXXXXXX XXXXXXXXXXXX    ",
"    XXXXXXXXXXX XXXXXXXXXXXX    ",
"    XXXXXXXXXXX XXXXXXXXXXXX    ",
"    XXXXXXXXXXX XXXXXXXXXXXX    ",
"    XXXXXXXXXXX XXXXXXXXXXXX    ",
"    XXXXXXXXX     XXXXXXXXXX    ",
"    XXXXXXXXX     XXXXXXXXXX    ",
"    XXXXXXXXX     XXXXXXXXXX    ",
"      XXXXXXX     XXXXXXXX      ",
"      XXXXXXX     XXXXXXXX      ",
"      .XXXX         XXXXX.      ",
"       XXXX         XXXX        ",
"       XXX           XX         ",
"                                ",
"                                ",
"                                ",
"                                ",
"                                ",
"                                ",
"                                ",
"                                ",
"                                ",
"                                ",
"                                "
};
