/* XPM */
static char *a4da4228a076454990d09a6d89a2db18nJ9fMNIGL8vpyOpr[] = {
/* columns rows colors chars-per-pixel */
"32 32 51 1 ",
"  c black",
". c #0A0000",
"X c #140000",
"o c #1F0000",
"O c #1B120A",
"+ c #290000",
"@ c #330000",
"# c #3D0000",
"$ c #23180D",
"% c #510000",
"& c #5C0000",
"* c #551E10",
"= c #660000",
"- c #7B0000",
"; c #593D20",
": c #6B4927",
"> c #744F2A",
", c #840000",
"< c #990000",
"1 c #80180D",
"2 c #A30000",
"3 c #AE0000",
"4 c #CC0000",
"5 c #D60000",
"6 c #D01E10",
"7 c #E00000",
"8 c #EB0000",
"9 c #F50000",
"0 c red",
"q c #FE090A",
"w c #FB120A",
"e c #FD1214",
"r c #FB1B1F",
"t c #F4371D",
"y c #FA2329",
"u c #F92C33",
"i c #9B5B30",
"p c #D85B30",
"a c #F04927",
"s c #BD7A40",
"d c #F54751",
"f c #F4505C",
"g c #DC7A40",
"h c #F35866",
"j c #F26170",
"k c #F16B7B",
"l c #DF9850",
"z c #EE7D8F",
"x c #EC8EA3",
"c c #E7B2CC",
"v c #E1DEFF",
/* pixels */
"                                ",
"                                ",
"                                ",
"                                ",
"              $;$               ",
"              ;l;               ",
"      &<<<<#O:>;1<<<<#          ",
"    X@30000,*si@30000,+.        ",
"    %48000076gp48000072+        ",
"    =0000000wat00000007,#       ",
"    =0000000000000000000<       ",
"    =0000000000000000000<       ",
"    =0000000000000000000<       ",
"    =0000000000000000000<       ",
"    =00000000000000yhy00<       ",
"    =00000000000000hvh00<       ",
"    =00000000000000hvh00<       ",
"    %480000000000qyjcd95-       ",
"    X@30000000000yxzue5&o       ",
"      <0000000000rkf004@        ",
"      <0000000000000004@        ",
"      #,70000000000002%X        ",
"       +2700957000084%          ",
"       .+,005&,00003@X          ",
"         #<<-o#<<<<&            ",
"                                ",
"                                ",
"                                ",
"                                ",
"                                ",
"                                ",
"                                "
};
