/* XPM */
static char *cdf72deed2e041fcaad46dc88750a6a9Xt0LmT4guohjTRp1[] = {
/* columns rows colors chars-per-pixel */
"32 32 110 2 ",
"   c black",
".  c #050000",
"X  c #050402",
"o  c #080000",
"O  c #0F0000",
"+  c #090603",
"@  c #0A0704",
"#  c #0D0905",
"$  c #100000",
"%  c #1B0000",
"&  c #1F150B",
"*  c #230000",
"=  c #260000",
"-  c #2E0000",
";  c #3A0000",
":  c #370C06",
">  c #21170C",
",  c #261A0E",
"<  c #281B0E",
"1  c #2C1E10",
"2  c #2F2011",
"3  c #322212",
"4  c #372514",
"5  c #3A2715",
"6  c #4B0000",
"7  c #570000",
"8  c #5E0000",
"9  c #630000",
"0  c #640000",
"q  c #690000",
"w  c #700000",
"e  c #760000",
"r  c #473019",
"t  c #52381D",
"y  c #563B1F",
"u  c #5C3F21",
"i  c #624323",
"p  c #6C4A27",
"a  c #704C28",
"s  c #744F2A",
"d  c #800000",
"f  c #910000",
"g  c #960000",
"h  c #A00000",
"j  c #A80000",
"k  c #AD0000",
"l  c #B10000",
"z  c #B40000",
"x  c #BC0000",
"c  c #BE0A06",
"v  c #832111",
"b  c #91341B",
"n  c #C70000",
"m  c #D10000",
"M  c #D40000",
"N  c #E20000",
"B  c #E90000",
"V  c #EE0000",
"C  c #F30000",
"Z  c #F90000",
"A  c red",
"S  c #FF0304",
"D  c #FE0405",
"F  c #FC0E07",
"G  c #FB150B",
"H  c #FD0E10",
"J  c #FC1417",
"K  c #FC171A",
"L  c #FB1B1F",
"P  c #FC191D",
"I  c #F82111",
"U  c #F12D18",
"Y  c #E9311A",
"T  c #F4341B",
"R  c #F33B1F",
"E  c #F4381D",
"W  c #FA2328",
"Q  c #FA262B",
"!  c #F92A30",
"~  c #F83239",
"^  c #F8373F",
"/  c #845A2F",
"(  c #885D31",
")  c #8C6032",
"_  c #906233",
"`  c #926334",
"'  c #9B6A38",
"]  c #9D6B38",
"[  c #A5713B",
"{  c #AC763E",
"}  c #F24122",
"|  c #EE552D",
" . c #F73942",
".. c #F54D58",
"X. c #F35865",
"o. c #F26271",
"O. c #F16A7A",
"+. c #C48546",
"@. c #CA8948",
"#. c #CE8C4A",
"$. c #D88F4B",
"%. c #D7924D",
"&. c #D9944E",
"*. c #DF9850",
"=. c #E28F4B",
"-. c #EE7F92",
";. c #ED889D",
":. c #EA9DB5",
">. c #E9A5BD",
",. c #E8A8C1",
/* pixels */
"                                                                ",
"                                                                ",
"                                                                ",
"                                                                ",
"                                                                ",
"                                                                ",
"                                        # p / i                 ",
"                                    2 r y +.*.[ .               ",
"                              X @ @ ` &.*.%.%.] .               ",
"                              y { { u s #.t 3 ,                 ",
"                          X y a a a , y @.<                     ",
"                % ; ; ; : 5 ` y     > i ' &                     ",
"                w C C C Y @.4 X     ) ( +                       ",
"              d M A A } | U c 7 > _ i 1                         ",
"            . x A A A E R Z k d v $.b q 8 $                     ",
"            . x H P S A C m 6 f I =.T A B 6 $                   ",
"            . x X.:.J A z - z V I =.T A Z N 0                   ",
"            . x ! o.-.~ j O n A F R G A A A e                   ",
"              d M L ;. .j O n W ^ D A A A A e                   ",
"                w C C C h O n O.,.K D A A A e                   ",
"                % ; ; ; = O n P ..>. .A A A e                   ",
"                          o 0 x P O.Q A C g ;                   ",
"                              9 n n n n l *                     ",
"                              . O O O O o                       ",
"                                                                ",
"                                                                ",
"                                                                ",
"                                                                ",
"                                                                ",
"                                                                ",
"                                                                ",
"                                                                "
};
