/* XPM */
static char *New_Piskel_1_png__1_1690334857[] = {
/* columns rows colors chars-per-pixel */
"32 32 34 1 ",
"  c None",
". c black",
"X c #252525",
"o c #2A2A2A",
"O c #6D6D6D",
"+ c #777777",
"@ c #FF7C00",
"# c #FF9C3C",
"$ c #FFAC5A",
"% c #FFBC78",
"& c #868787",
"* c #9F9F9F",
"= c #EFADAE",
"- c #E3B6B7",
"; c #EAB7B8",
": c #E3BDBE",
"> c #E2BFBF",
", c gainsboro",
"< c #DDDDDD",
"1 c #ECC3C4",
"2 c #EEC4C4",
"3 c #EFC6C7",
"4 c #E1D0D0",
"5 c #E1D1D1",
"6 c #ECD5D5",
"7 c #E2D8D8",
"8 c #EBC4FF",
"9 c gray88",
"0 c #E0E1E1",
"q c #E1E1E1",
"w c #E1E2E2",
"e c #E0E3E3",
"r c #F9F2F2",
"t c white",
/* pixels */
"                                ",
"                                ",
"                                ",
"                                ",
"             @@@@@@@            ",
"         @@@@@@@@@@@@@@         ",
"         @@@@@@@@@@@@@@         ",
"       @@@@@@@@@@@@@@@@@@       ",
"       ;;;@@@@@@@@333@@@@       ",
"      @q993@@@@@@@999@@@@@@     ",
"      =q99-@@@@@@1999@@@@@@     ",
"      qqq999r@@@79q99ee@@@@     ",
"     @ooX<99r@@@#oo+99e@@@@     ",
"     @...<7qr@@@$..Oe99@@@@     ",
"   @@@...<<qr@@@%..O99q@@@@@    ",
"   @@@t&&<5:;@@@@t&*<61@@@@@    ",
"   @@@@qq9@@@@@@@8qqq@@@@@@@    ",
"   @@@@545@@@@@@@@555@@@@@@@    ",
"   @@@@@@@@@@@@@@@@@@@@@@@@@    ",
"   @@@@@@@@@@@@@@@@@@@@@@@@@    ",
"   @@@@@@@@@@@@@@@@@@@@@@@@@    ",
"   @@@@@@@@@@@@@@@@@@@@@@@@@    ",
"   @@@@@@@@@@@@@@@@@@@@@@@@@    ",
"   @@@@@@@@@@@@@@@@@@@@@@@@@    ",
"   @@@@@@@@@@@@@@@@@@@@@@@@@    ",
"   @@@@@@@  @@@@@@@@ @@@@@@@    ",
"     @@@      @@@@     @@@      ",
"      @@      @@@@     @@@      ",
"                                ",
"                                ",
"                                ",
"                                "
};
