/* XPM */
static char *New_Piskel_4_png__1_1690334920[] = {
/* columns rows colors chars-per-pixel */
"32 32 33 1 ",
"  c None",
". c black",
"X c #2C0000",
"o c gray42",
"O c #FF7C00",
"+ c #FFA44B",
"@ c #A69292",
"# c #A4A5A6",
"$ c #B3B5B5",
"% c #BBBBBB",
"& c #E4A9AA",
"* c #E7AEAF",
"= c #E8B5B6",
"- c #E3B9B9",
"; c #E3BDBE",
": c #EBB9B9",
"> c #FFCC96",
", c #FFDAB4",
"< c #CECECE",
"1 c #DDDDDD",
"2 c #DFDFDF",
"3 c #E2C5C5",
"4 c #E2C7C7",
"5 c #E7C4C4",
"6 c #EEC3C4",
"7 c #E1D3D3",
"8 c #E1D8D8",
"9 c #E0DCDC",
"0 c #FFE2C3",
"q c gray88",
"w c #E0E2E2",
"e c #E2E2E2",
"r c #EAEAEA",
/* pixels */
"                                ",
"                                ",
"                                ",
"             OOOOOO             ",
"             OOOOOOO            ",
"         OOOOOOOOOOOOOO         ",
"         OOOOOOOOOOOOOO         ",
"       OOOOOOOOOOOOOOOOOO       ",
"      OOOOO---OOOOOOO=55=OO     ",
"      OOOO=qqqOOOOOOO9qq3OO     ",
"      OOOO3qqq*:OOOOO1qq7=6     ",
"      OOOqqqq11qOOOOeqqqq11     ",
"      OOO9qq%...>OOOwqro...O    ",
"      OOO9qq%...,OOOwqwo...O    ",
"   OOOOOO9qq%...,OOOwqqo..XO    ",
"   OOOOOOO3q<#+,OOOOO9q$@0,O    ",
"   OOOOOOOOweqOOOOOOO8qq4OOO    ",
"   OOOOOOOO;;;OOOOOOO-;;&OOO    ",
"   OOOOOOOOOOOOOOOOOOOOOOOOO    ",
"   OOOOOOOOOOOOOOOOOOOOOOOOO    ",
"   OOOOOOOOOOOOOOOOOOOOOOOOO    ",
"   OOOOOOOOOOOOOOOOOOOOOOOOO    ",
"   OOOOOOOOOOOOOOOOOOOOOOOOO    ",
"   OOOOOOOOOOOOOOOOOOOOOOOOO    ",
"   OOOOOOOOOOOOOOOOOOOOOOOOO    ",
"   OOOOOOO  OOOOOOOO OOOOOOO    ",
"     OOO      OOOO     OOO      ",
"      OO      OOOO     OOO      ",
"                                ",
"                                ",
"                                ",
"                                "
};
