/* XPM */
static char *New_Piskel_2_png__1_1690334889[] = {
/* columns rows colors chars-per-pixel */
"32 32 26 1 ",
"  c None",
". c black",
"X c #150000",
"o c #1E1E1E",
"O c #241C1C",
"+ c #FF7C00",
"@ c #8C7B7B",
"# c gray54",
"$ c #A8A9A9",
"% c #B1B3B3",
"& c #B2B4B4",
"* c #B4B5B6",
"= c #CCB5B6",
"- c #E3BCBC",
"; c #C3C3C3",
": c #CACACA",
"> c #D7D7D7",
", c #D8D8D8",
"< c #E2C5C5",
"1 c #E2C8C8",
"2 c #EFD2D3",
"3 c #E0DFDF",
"4 c gray88",
"5 c #E0E1E1",
"6 c #E1E1E1",
"7 c #E0E3E3",
/* pixels */
"                                ",
"                                ",
"                                ",
"             ++++++             ",
"             +++++++            ",
"         ++++++++++++++         ",
"         ++++++++++++++         ",
"       ++++++++++++++++++       ",
"      +++++++++++++++++++++     ",
"      +++++++++++++++++++++     ",
"      +++++++++++++++++++++     ",
"      +++355-+++++++555++++     ",
"      +3335353++++535553<++     ",
"      +5533553++++355635<++     ",
"   ++++5335335++++55,755<+++    ",
"   ++++55*&&;5++++5>&&&,<+++    ",
"   ++++55o..#5++++5:...:<+++    ",
"   ++++11O..@1++++1=...=2+++    ",
"   ++++++X..$+++++++...+++++    ",
"   +++++++++++++++++++++++++    ",
"   +++++++++++++++++++++++++    ",
"   +++++++++++++++++++++++++    ",
"   +++++++++++++++++++++++++    ",
"   +++++++++++++++++++++++++    ",
"   +++++++++++++++++++++++++    ",
"   +++++++  ++++++++ +++++++    ",
"     +++      ++++     +++      ",
"      ++      ++++     +++      ",
"                                ",
"                                ",
"                                ",
"                                "
};
