/* XPM */
static char *New_Piskel_3_png__1_1690335086[] = {
/* columns rows colors chars-per-pixel */
"32 32 27 1 ",
"  c None",
". c black",
"X c gray5",
"o c #232323",
"O c #464646",
"+ c gray31",
"@ c #5F6060",
"# c #FF7C00",
"$ c #B6B6B7",
"% c #CECECE",
"& c #D0D0D0",
"* c #D7D9D9",
"= c #D8D8D8",
"- c #DADADA",
"; c #E2C9C9",
": c #E1CDCE",
"> c #E1CFD0",
", c #E1D3D3",
"< c #E1D5D5",
"1 c #E1D7D7",
"2 c #E1D8D8",
"3 c #E0DCDC",
"4 c gray88",
"5 c #E0E1E1",
"6 c #E2E2E2",
"7 c #E0E4E4",
"8 c #E2E6E6",
/* pixels */
"                                ",
"                                ",
"                                ",
"             #######            ",
"             #######            ",
"         ...o#######...         ",
"         X..O#######...         ",
"       47+..@7####7*...$4       ",
"      #44&%%&7####44%%&-2##     ",
"      #3447244####4444442##     ",
"      #3447444####744444<##     ",
"      #>,4444<####<<4442;##     ",
"      ###,44:#######744=###     ",
"      ###>33;#######433%###     ",
"    ########################    ",
"    ########################    ",
"    ########################    ",
"    ########################    ",
"    ########################    ",
"    ########################    ",
"    ########################    ",
"    ########################    ",
"    ########################    ",
"    ########################    ",
"    ########################    ",
"    ##  ######    #####   ##    ",
"    #      ###    ###      #    ",
"    #      ###    ###      #    ",
"                                ",
"                                ",
"                                ",
"                                "
};
