/* XPM */
static char *dab95d504d874625c446acbbdeabf983TMEsQPTD2DDU6DUl[] = {
/* columns rows colors chars-per-pixel */
"32 32 77 1 ",
"  c black",
". c #0E0A05",
"X c #001D00",
"o c #1F170A",
"O c #22190B",
"+ c #251B0C",
"@ c #261C0C",
"# c #2A1F0D",
"$ c #2D1F10",
"% c #0E2D05",
"& c #003000",
"* c #003400",
"= c #003E00",
"- c #0F3905",
"; c #322410",
": c #342610",
"> c #392D12",
", c #3D2C13",
"< c #3B2914",
"1 c #3F2B17",
"2 c #402E14",
"3 c #433115",
"4 c #47311A",
"5 c #513B19",
"6 c #573F1B",
"7 c #005000",
"8 c #007E00",
"9 c #3B6E14",
"0 c #57401B",
"q c #477C1A",
"w c #6E4B27",
"e c #765625",
"r c #85612A",
"t c #88632B",
"y c #89642B",
"u c #8B652C",
"i c #8E672D",
"p c #8F682D",
"a c #90692D",
"s c #008500",
"d c #009100",
"f c #00A200",
"g c #00AE00",
"h c #3FC517",
"j c #3BDB12",
"k c #00E200",
"l c #00EC00",
"z c #00F400",
"x c green",
"c c #40EE14",
"v c #B08037",
"b c #B48338",
"n c #C68747",
"m c #D39942",
"M c #D49A42",
"N c #D89D44",
"B c #D6924C",
"V c #DC9A4B",
"C c #DF9850",
"Z c #E09950",
"A c #DBA045",
"S c #DCA04B",
"D c #DBB045",
"F c #E0A346",
"G c #E2A447",
"H c #EBAB4A",
"J c #EEAD4B",
"K c #F1AF4C",
"L c #EEBF4B",
"P c #F7B44E",
"I c #FAB64F",
"U c #FCB84F",
"Y c #E9A350",
"T c #EDA750",
"R c #F7B250",
"E c #F8B350",
"W c #FFBA50",
/* pixels */
"                                ",
"                                ",
"                                ",
"                                ",
"                                ",
"                                ",
"                 &ss7           ",
"              .$%8xxg**X        ",
"              1nhlxxzkk8        ",
"              4Cqfxxxzd=        ",
"          @22<wCw9cccj-         ",
"          pJJVBZBSLLLD>         ",
"        +aNWWRTZTRWWWPb0        ",
"       #eKWWWWEYEWWWWWWv3.      ",
"       uIWWWWWWWWWWWWWWUA;      ",
"       iWWWWWWWWWWWWWWWWF;      ",
"       iWWWWWWWWWWWWWWWWF;      ",
"       iWWWWWWWWWWWWWWWWF;      ",
"       iWWWWWWWWWWWWWWWWF;      ",
"       6bPWWWWWWWWWWWWWMyo      ",
"        ,HWWWWWWWWWWWWWp        ",
"        ,HWWWWWWWWWWWWWi        ",
"        OravIWWWWWWWmaa5        ",
"           2NGGGGGGGt           ",
"           .;:::::::o           ",
"                                ",
"                                ",
"                                ",
"                                ",
"                                ",
"                                ",
"                                "
};
