/* XPM */
static char *c7df930be6d84214bd6e68f67d9f1d44IJwtn0kGlPaH15Fj[] = {
/* columns rows colors chars-per-pixel */
"32 32 3 1 ",
"  c black",
". c #D3FF00",
"X c #D4FF00",
/* pixels */
"                                ",
"                                ",
"                                ",
"                                ",
"XXXXXXXX                        ",
"XXXXXXXX                        ",
"XXXXXXXXXX.                     ",
"XXXXXXXXXXX                     ",
"XXXXXXXXXXXX                    ",
"XXXXXXXXXXXXX                   ",
"XXXXXXXXXXXXX                   ",
"XXXXXXXXXXXX                    ",
"XXXXXXXXXX                      ",
"XXXXXXXXXX                      ",
"XXXXX                           ",
"XXXXX                           ",
"                                ",
"XXXXX                           ",
"XXXXX                           ",
"XXXXXXXXXX                      ",
"XXXXXXXXXX                      ",
"XXXXXXXXXXXX                    ",
"XXXXXXXXXXXXX                   ",
"XXXXXXXXXXXXX                   ",
"XXXXXXXXXXXXX                   ",
"XXXXXXXXXX.                     ",
"XXXXXXXX                        ",
"XXXXXXXX                        ",
"                                ",
"                                ",
"                                ",
"                                "
};
