/* XPM */
static char *_a2e702b4d9049fde6d6c36e9e588b45Mk267cC1c5iWvUK8[] = {
/* columns rows colors chars-per-pixel */
"32 32 3 1 ",
"  c black",
". c #D3FF00",
"X c #D4FF00",
/* pixels */
"                                ",
"                                ",
"                                ",
"                                ",
"                        XXXXXXXX",
"                        XXXXXXXX",
"                     .XXXXXXXXXX",
"                   XXXXXXXXXXXXX",
"                   XXXXXXXXXXXXX",
"                   XXXXXXXXXXXXX",
"                    XXXXXXXXXXXX",
"                      XXXXXXXXXX",
"                      XXXXXXXXXX",
"                           XXXXX",
"                           XXXXX",
"                                ",
"                           XXXXX",
"                           XXXXX",
"                      XXXXXXXXXX",
"                      XXXXXXXXXX",
"                    XXXXXXXXXXXX",
"                   XXXXXXXXXXXXX",
"                   XXXXXXXXXXXXX",
"                    XXXXXXXXXXXX",
"                     XXXXXXXXXXX",
"                     .XXXXXXXXXX",
"                        XXXXXXXX",
"                        XXXXXXXX",
"                                ",
"                                ",
"                                ",
"                                "
};
