/* XPM */
static char *_1efba2e5b8e4fdafd039e2538da90f7pyVeW0DPqVaE9QGY[] = {
/* columns rows colors chars-per-pixel */
"32 32 3 1 ",
"  c black",
". c #D3FF00",
"X c #D4FF00",
/* pixels */
"                                ",
"                                ",
"                                ",
"                                ",
"                           XXXXX",
"                           XXXXX",
"                        XXXXXXXX",
"                       XXXXXXXXX",
"                      XXXXXXXXXX",
"                      .XXXXXXXXX",
"                      XXXXXXXXXX",
"                    XXXXXXXXXXXX",
"                    XXXXXXXXXXXX",
"                    XXXXXXXXXXXX",
"                    XXXXXXXXXXXX",
"                    XXXXXXXXXXXX",
"                    XXXXXXX     ",
"                    XXXXXXXXXXXX",
"                    XXXXXXXXXXXX",
"                    XXXXXXXXXXXX",
"                    X.XXXXXXXXXX",
"                      XXXXXXXXXX",
"                      XXXXXXXXXX",
"                      XXXXXXXXXX",
"                       XXXXXXXXX",
"                       XXXXXXXXX",
"                           XXXXX",
"                           XXXXX",
"                                ",
"                                ",
"                                ",
"                                "
};
