/* XPM */
static char *_c02617ca87848eee2f47cc990821b36anm2hkoIxN1vWpFX[] = {
/* columns rows colors chars-per-pixel */
"32 32 3 1 ",
"  c black",
". c #D3FF00",
"X c #D4FF00",
/* pixels */
"                                ",
"                                ",
"                                ",
"                                ",
"XXXX                            ",
"XXXX                            ",
"XXXXXXXX                        ",
"XXXXXXXX                        ",
"XXXXXXXXX                       ",
"XXXXXXXXX                       ",
"XXXXXXXXX                       ",
"XXXXXXXXX.X                     ",
"XXXXXXXXXXX                     ",
"XXXXXXXXXXX                     ",
"XXXXXXXXXXX                     ",
"    XXXXXXX                     ",
"XXXXXXXXXXX                     ",
"XXXXXXXXXXX                     ",
"XXXXXXXXXXX                     ",
"XXXXXXXXXXX                     ",
"XXXXXXXXXXX                     ",
"XXXXXXXXX                       ",
"XXXXXXXX.                       ",
"XXXXXXXXX                       ",
"XXXXXXXX                        ",
"XXXXXXX                         ",
"XXXX                            ",
"XXXX                            ",
"                                ",
"                                ",
"                                ",
"                                "
};
