/* XPM */
static char *eb782c47ea024ee2b3b3bbb4ba0253c3srUhvg4hGgP5La7j[] = {
/* columns rows colors chars-per-pixel */
"32 32 123 2 ",
"   c black",
".  c #070000",
"X  c #000400",
"o  c #090000",
"O  c #0E0000",
"+  c #000A00",
"@  c #100000",
"#  c #1A0000",
"$  c #1C0000",
"%  c #001600",
"&  c #001F00",
"*  c #17171B",
"=  c #210000",
"-  c #260000",
";  c #2A0000",
":  c #2C0000",
">  c #002100",
",  c #003C00",
"<  c #36353D",
"1  c #410000",
"2  c #470000",
"3  c #490000",
"4  c #5C0000",
"5  c #610000",
"6  c #640000",
"7  c #680000",
"8  c #6F0300",
"9  c #7C0000",
"0  c #6F2B00",
"q  c #314A38",
"w  c #6F5F00",
"e  c #5C5B68",
"r  c #8B0000",
"t  c #8E0000",
"y  c #980000",
"u  c #920B0D",
"i  c #AB0000",
"p  c #AE0D0E",
"a  c #B70000",
"s  c #BC0000",
"d  c #BD0304",
"f  c #C60000",
"g  c #CA0000",
"h  c #D00000",
"j  c #D60000",
"k  c #EB0000",
"l  c #F10000",
"z  c #FB0000",
"x  c red",
"c  c #FE0405",
"v  c #FE0708",
"b  c #FE0809",
"n  c #FE0B0D",
"m  c #FD0C0E",
"M  c #EB1400",
"N  c #FD0F11",
"B  c #FC1316",
"V  c #FC171A",
"C  c #FC1A1D",
"Z  c #DD2200",
"A  c #D82700",
"S  c #C03F00",
"D  c #FB1D22",
"F  c #FA2227",
"G  c #FA272D",
"H  c #F92C32",
"J  c #F92E35",
"K  c #F8323A",
"L  c #F8353D",
"P  c #BC4300",
"I  c #B94600",
"U  c #B24E00",
"Y  c #936C00",
"T  c #F73D46",
"R  c #B34E5A",
"E  c #875F6D",
"W  c #F6414B",
"Q  c #F6424C",
"!  c #F6444E",
"~  c #F54853",
"^  c #F54D59",
"/  c #F4505D",
"(  c #F45562",
")  c #F35967",
"_  c #F25F6D",
"`  c #DA6C7C",
"'  c #F2606E",
"]  c #F16675",
"[  c #F16A79",
"{  c #F06C7C",
"}  c #008300",
"|  c #00BC00",
" . c #6F8800",
".. c #7A8600",
"X. c #5FA100",
"o. c #4DB200",
"O. c #00C700",
"+. c #2FD000",
"@. c #24DB00",
"#. c #1BE400",
"$. c #16E900",
"%. c #11EE00",
"&. c #0BF400",
"*. c #07F900",
"=. c green",
"-. c #31CC38",
";. c #1CFB20",
":. c #40F648",
">. c #6EEF7C",
",. c #707F80",
"<. c #EE7B8D",
"1. c #EE7C8F",
"2. c #F07384",
"3. c #70D380",
"4. c #EE8093",
"5. c #ED8598",
"6. c #ED889D",
"7. c #EB91A7",
"8. c #E9A6BF",
"9. c #C1C3DB",
"0. c #C1DBDB",
"q. c #E3D0EF",
"w. c #E3D1F0",
/* pixels */
"                                                                ",
"                                                                ",
"                                                                ",
"                                                                ",
"                                                                ",
"                          * e <                                 ",
"                  % > > > q 9.,.> > > & +                       ",
"                X } O.O.O.-.0.3.O.O.O.| ,                       ",
"              ; 8 w o.*.=.;.>.:.=.=.+. .0 3                     ",
"            @ 8 x x I @.$.%.=.&.$.$...x m p # o                 ",
"          @ r j x x M S P Y #.X.P P A b 2.` d 2                 ",
"          # s F ( D x x x Z ..U m ! K b _ ) x 5                 ",
"          # s / q.~ x b c x b c D 8.<.x x x x 5                 ",
"          # s C Q V J 7.W F 5.^ b L G x x x x 5                 ",
"          # s x x x H 6.T F 1.~ x x F ~ V x x 5                 ",
"          # s x x x x x x x x x x x _ w.Q x x 5                 ",
"          o 1 y x ' ] b x F 1.~ x x F ~ V f 4 =                 ",
"              5 x ] { b x F 5.^ x x x x x i .                   ",
"              5 x c v x x x b c x x x x x i .                   ",
"              - 6 g x x ^ [ B x B [ R 6 6 1                     ",
"                . 9 h z _ 4.V x V 4.E                           ",
"                  O 4 l n N x x x N u                           ",
"                    = 7 8 t k a 8 8 1                           ",
"                          : i 6                                 ",
"                          . $ @                                 ",
"                                                                ",
"                                                                ",
"                                                                ",
"                                                                ",
"                                                                ",
"                                                                ",
"                                                                "
};
